<svg width="22" height="22" viewBox="0 0 22 22" fill="none" xmlns="http://www.w3.org/2000/svg">
<mask id="mask0_174_85" style="mask-type:alpha" maskUnits="userSpaceOnUse" x="0" y="0" width="22" height="22">
<rect width="21.5385" height="21.5385" fill="#D9D9D9"/>
</mask>
<g mask="url(#mask0_174_85)">
<path d="M10.7693 17.9488C9.93172 17.9488 9.14273 17.8179 8.40234 17.5562C7.66196 17.2944 6.98514 16.9242 6.3719 16.4456L5.11548 17.6796C4.95095 17.8441 4.74155 17.9264 4.48728 17.9264C4.23301 17.9264 4.0236 17.8441 3.85907 17.6796C3.69454 17.5151 3.61228 17.3057 3.61228 17.0514C3.61228 16.7971 3.69454 16.5877 3.85907 16.4232L5.09305 15.1892C4.61442 14.576 4.24422 13.8954 3.98247 13.1475C3.72072 12.3997 3.58984 11.6069 3.58984 10.7693C3.58984 8.76506 4.28536 7.06741 5.67638 5.67638C7.06741 4.28536 8.76506 3.58984 10.7693 3.58984H17.9488V10.7693C17.9488 12.7736 17.2533 14.4713 15.8623 15.8623C14.4713 17.2533 12.7736 17.9488 10.7693 17.9488ZM10.7693 16.1539C12.2651 16.1539 13.5364 15.6304 14.5834 14.5834C15.6304 13.5364 16.1539 12.2651 16.1539 10.7693V5.38472H10.7693C9.2736 5.38472 8.00224 5.90822 6.95523 6.95523C5.90822 8.00224 5.38472 9.2736 5.38472 10.7693C5.38472 11.3527 5.47446 11.9098 5.65395 12.4408C5.83343 12.9718 6.08023 13.4542 6.39433 13.8879L11.0386 9.24369C11.2031 9.07916 11.4125 8.9969 11.6668 8.9969C11.921 8.9969 12.1304 9.07916 12.295 9.24369C12.4745 9.42318 12.5642 9.63632 12.5642 9.88311C12.5642 10.1299 12.4745 10.343 12.295 10.5225L7.65074 15.1668C8.0845 15.4809 8.56687 15.7239 9.09786 15.8959C9.62884 16.0679 10.186 16.1539 10.7693 16.1539Z" fill="white"/>
</g>
</svg>
