<svg width="22" height="22" viewBox="0 0 22 22" fill="none" xmlns="http://www.w3.org/2000/svg">
<mask id="mask0_174_65" style="mask-type:alpha" maskUnits="userSpaceOnUse" x="0" y="0" width="22" height="22">
<rect width="21.5385" height="21.5385" fill="#D9D9D9"/>
</mask>
<g mask="url(#mask0_174_65)">
<path d="M10.7693 16.1539C12.2651 16.1539 13.5289 15.6304 14.561 14.5834C15.593 13.5364 16.124 12.2651 16.1539 10.7693V5.38472H10.7693C9.2736 5.41463 8.00224 5.94561 6.95523 6.97766C5.90822 8.00972 5.38472 9.2736 5.38472 10.7693C5.38472 12.2651 5.90822 13.5364 6.95523 14.5834C8.00224 15.6304 9.2736 16.1539 10.7693 16.1539ZM9.71484 14.6507L13.843 10.9713C13.9777 10.8516 14.0151 10.7095 13.9552 10.545C13.8954 10.3804 13.7757 10.2832 13.5963 10.2533L10.3655 9.9392L12.295 7.26933C12.3398 7.19454 12.366 7.1235 12.3735 7.05619C12.381 6.98888 12.3548 6.92531 12.295 6.86548C12.2351 6.7907 12.1604 6.75704 12.0706 6.76452C11.9809 6.772 11.8986 6.80566 11.8238 6.86548L7.71805 10.545C7.58343 10.6646 7.54604 10.8067 7.60587 10.9713C7.6657 11.1358 7.78536 11.233 7.96484 11.2629L11.1956 11.577L9.24369 14.2469C9.19882 14.3217 9.17638 14.3927 9.17638 14.46C9.17638 14.5273 9.2063 14.5909 9.26613 14.6507C9.32596 14.7106 9.397 14.7405 9.47927 14.7405C9.56153 14.7405 9.64006 14.7106 9.71484 14.6507ZM10.7693 17.9488C9.93172 17.9488 9.14273 17.8179 8.40234 17.5562C7.66196 17.2944 6.98514 16.9242 6.3719 16.4456L5.13792 17.6796C5.04818 17.7693 4.94722 17.8366 4.83504 17.8815C4.72286 17.9264 4.60694 17.9488 4.48728 17.9488C4.23301 17.9488 4.01987 17.8628 3.84786 17.6908C3.67585 17.5188 3.58984 17.3057 3.58984 17.0514C3.58984 16.9317 3.61228 16.8158 3.65715 16.7036C3.70202 16.5914 3.76933 16.4905 3.85907 16.4007L5.09305 15.1668C4.61442 14.5535 4.24422 13.8767 3.98247 13.1363C3.72072 12.3959 3.58984 11.6069 3.58984 10.7693C3.58984 8.76506 4.28536 7.06741 5.67638 5.67638C7.06741 4.28536 8.76506 3.58984 10.7693 3.58984H17.9488V10.7693C17.9488 12.7736 17.2533 14.4713 15.8623 15.8623C14.4713 17.2533 12.7736 17.9488 10.7693 17.9488Z" fill="white"/>
</g>
</svg>
