<svg width="40" height="40" viewBox="0 0 40 40" fill="none" xmlns="http://www.w3.org/2000/svg">
<mask id="mask0_184_3818" style="mask-type:alpha" maskUnits="userSpaceOnUse" x="0" y="0" width="40" height="40">
<rect width="40" height="40" fill="#D9D9D9"/>
</mask>
<g mask="url(#mask0_184_3818)">
<path d="M17.1944 28.3615L26.7219 18.8336L24.8053 16.9169L17.2082 24.514L13.2636 20.5698L11.3332 22.5002L17.1944 28.3615ZM10.5832 33.3336C8.11095 33.3336 6.00678 32.4725 4.27067 30.7502C2.53456 29.028 1.6665 26.9308 1.6665 24.4586C1.6665 22.2919 2.34706 20.3798 3.70817 18.7223C5.06928 17.0651 6.8147 16.0466 8.94442 15.6669C9.54609 13.0189 10.8794 10.8615 12.9444 9.19482C15.0091 7.52816 17.3794 6.69482 20.0553 6.69482C23.2128 6.69482 25.8818 7.82677 28.0623 10.0907C30.2429 12.3545 31.3332 15.0837 31.3332 18.2782V18.9448C33.3054 18.9818 34.9651 19.6877 36.3123 21.0627C37.6596 22.4377 38.3332 24.1298 38.3332 26.139C38.3332 28.1112 37.6272 29.8034 36.2153 31.2157C34.803 32.6276 33.1108 33.3336 31.1386 33.3336H10.5832ZM10.5832 30.5557H31.1386C32.3608 30.5557 33.4025 30.1251 34.2636 29.264C35.1247 28.4029 35.5553 27.3612 35.5553 26.139C35.5553 24.9168 35.1247 23.8751 34.2636 23.014C33.4025 22.1529 32.3608 21.7223 31.1386 21.7223H28.5553V18.2782C28.5553 15.8243 27.7197 13.7432 26.0486 12.0348C24.3772 10.3265 22.3425 9.47233 19.9444 9.47233C17.5461 9.47233 15.5066 10.3265 13.8261 12.0348C12.1455 13.7432 11.3053 15.8243 11.3053 18.2782H10.4998C8.81456 18.2782 7.384 18.8707 6.20817 20.0557C5.03234 21.2409 4.44442 22.6947 4.44442 24.4169C4.44442 26.1205 5.04164 27.5695 6.23609 28.764C7.43053 29.9584 8.87956 30.5557 10.5832 30.5557Z" fill="#FFF1D8"/>
</g>
</svg>
