<svg width="40" height="40" viewBox="0 0 40 40" fill="none" xmlns="http://www.w3.org/2000/svg">
<mask id="mask0_184_3809" style="mask-type:alpha" maskUnits="userSpaceOnUse" x="0" y="0" width="40" height="40">
<rect width="40" height="40" fill="#D9D9D9"/>
</mask>
<g mask="url(#mask0_184_3809)">
<path d="M10.5832 33.3336C8.11095 33.3336 6.00678 32.4725 4.27067 30.7502C2.53456 29.028 1.6665 26.9308 1.6665 24.4586C1.6665 22.2919 2.34706 20.3798 3.70817 18.7223C5.06928 17.0651 6.8147 16.0466 8.94442 15.6669C9.54609 13.0189 10.8794 10.8615 12.9444 9.19482C15.0091 7.52816 17.3794 6.69482 20.0553 6.69482C23.2128 6.69482 25.8818 7.82677 28.0623 10.0907C30.2429 12.3545 31.3332 15.0837 31.3332 18.2782V18.9448C33.3054 18.9818 34.9651 19.6877 36.3123 21.0627C37.6596 22.4377 38.3332 24.1298 38.3332 26.139C38.3332 28.1112 37.6272 29.8034 36.2153 31.2157C34.803 32.6276 33.1108 33.3336 31.1386 33.3336H10.5832ZM10.5832 30.5557H31.1386C32.3608 30.5557 33.4025 30.1251 34.2636 29.264C35.1247 28.4029 35.5553 27.3612 35.5553 26.139C35.5553 24.9168 35.1247 23.8751 34.2636 23.014C33.4025 22.1529 32.3608 21.7223 31.1386 21.7223H28.5553V18.2782C28.5553 15.8243 27.7197 13.7432 26.0486 12.0348C24.3772 10.3265 22.3425 9.47233 19.9444 9.47233C17.5461 9.47233 15.5066 10.3265 13.8261 12.0348C12.1455 13.7432 11.3053 15.8243 11.3053 18.2782H10.4998C8.81456 18.2782 7.384 18.8707 6.20817 20.0557C5.03234 21.2409 4.44442 22.6947 4.44442 24.4169C4.44442 26.1205 5.04164 27.5695 6.23609 28.764C7.43053 29.9584 8.87956 30.5557 10.5832 30.5557ZM19.9998 26.389C20.3979 26.389 20.7289 26.257 20.9928 25.9932C21.2566 25.7293 21.3886 25.3983 21.3886 25.0002C21.3886 24.6022 21.2566 24.2712 20.9928 24.0073C20.7289 23.7434 20.3979 23.6115 19.9998 23.6115C19.6018 23.6115 19.2708 23.7434 19.0069 24.0073C18.743 24.2712 18.6111 24.6022 18.6111 25.0002C18.6111 25.3983 18.743 25.7293 19.0069 25.9932C19.2708 26.257 19.6018 26.389 19.9998 26.389ZM18.6111 20.8336H21.3886V13.3336H18.6111V20.8336Z" fill="#FFF1D8"/>
</g>
</svg>
