<svg width="22" height="22" viewBox="0 0 22 22" fill="none" xmlns="http://www.w3.org/2000/svg">
<mask id="mask0_174_145" style="mask-type:alpha" maskUnits="userSpaceOnUse" x="0" y="0" width="22" height="22">
<rect width="22" height="22" fill="#D9D9D9"/>
</mask>
<g mask="url(#mask0_174_145)">
<path d="M11.0002 19.25L9.671 18.0584C8.12794 16.6681 6.85225 15.4688 5.84391 14.4604C4.83558 13.4521 4.0335 12.5469 3.43766 11.7448C2.84183 10.9427 2.42551 10.2056 2.1887 9.53337C1.9519 8.86114 1.8335 8.17364 1.8335 7.47087C1.8335 6.03475 2.31475 4.83545 3.27725 3.87295C4.23975 2.91045 5.43905 2.4292 6.87516 2.4292C7.66961 2.4292 8.42586 2.59725 9.14391 2.93337C9.86197 3.26948 10.4807 3.74309 11.0002 4.3542C11.5196 3.74309 12.1384 3.26948 12.8564 2.93337C13.5745 2.59725 14.3307 2.4292 15.1252 2.4292C16.5613 2.4292 17.7606 2.91045 18.7231 3.87295C19.6856 4.83545 20.1668 6.03475 20.1668 7.47087C20.1668 8.17364 20.0484 8.86114 19.8116 9.53337C19.5748 10.2056 19.1585 10.9427 18.5627 11.7448C17.9668 12.5469 17.1647 13.4521 16.1564 14.4604C15.1481 15.4688 13.8724 16.6681 12.3293 18.0584L11.0002 19.25ZM11.0002 16.775C12.4668 15.4611 13.6738 14.3344 14.621 13.3948C15.5682 12.4552 16.3168 11.6379 16.8668 10.9427C17.4168 10.2476 17.7988 9.62885 18.0127 9.08649C18.2266 8.54413 18.3335 8.00559 18.3335 7.47087C18.3335 6.5542 18.0279 5.79031 17.4168 5.1792C16.8057 4.56809 16.0418 4.26253 15.1252 4.26253C14.4071 4.26253 13.7425 4.46496 13.1314 4.86982C12.5203 5.27469 12.1002 5.79031 11.871 6.4167H10.1293C9.90016 5.79031 9.48002 5.27469 8.86891 4.86982C8.2578 4.46496 7.59322 4.26253 6.87516 4.26253C5.9585 4.26253 5.19461 4.56809 4.5835 5.1792C3.97239 5.79031 3.66683 6.5542 3.66683 7.47087C3.66683 8.00559 3.77377 8.54413 3.98766 9.08649C4.20155 9.62885 4.5835 10.2476 5.1335 10.9427C5.6835 11.6379 6.43211 12.4552 7.37933 13.3948C8.32655 14.3344 9.5335 15.4611 11.0002 16.775Z" fill="white"/>
</g>
</svg>
