<svg width="22" height="22" viewBox="0 0 22 22" fill="none" xmlns="http://www.w3.org/2000/svg">
<mask id="mask0_174_121" style="mask-type:alpha" maskUnits="userSpaceOnUse" x="0" y="0" width="22" height="22">
<rect width="21.5385" height="21.5385" fill="#D9D9D9"/>
</mask>
<g mask="url(#mask0_174_121)">
<path d="M10.7693 18.8459L9.468 17.6792C7.95732 16.3181 6.70838 15.144 5.7212 14.1568C4.73402 13.1696 3.94877 12.2834 3.36543 11.4981C2.7821 10.7129 2.37452 9.99118 2.14268 9.33306C1.91084 8.67494 1.79492 8.00186 1.79492 7.31383C1.79492 5.90784 2.26608 4.7337 3.20838 3.79139C4.15069 2.84908 5.32484 2.37793 6.73082 2.37793C7.5086 2.37793 8.24898 2.54246 8.95197 2.87152C9.65496 3.20058 10.2607 3.66425 10.7693 4.26255C11.2778 3.66425 11.8836 3.20058 12.5866 2.87152C13.2896 2.54246 14.03 2.37793 14.8077 2.37793C16.2137 2.37793 17.3879 2.84908 18.3302 3.79139C19.2725 4.7337 19.7436 5.90784 19.7436 7.31383C19.7436 8.00186 19.6277 8.67494 19.3959 9.33306C19.164 9.99118 18.7565 10.7129 18.1731 11.4981C17.5898 12.2834 16.8045 13.1696 15.8174 14.1568C14.8302 15.144 13.5812 16.3181 12.0706 17.6792L10.7693 18.8459ZM10.7693 16.4228C12.2052 15.1365 13.3868 14.0334 14.3142 13.1135C15.2415 12.1936 15.9744 11.3934 16.5129 10.7129C17.0513 10.0323 17.4253 9.42654 17.6347 8.89556C17.8441 8.36458 17.9488 7.83733 17.9488 7.31383C17.9488 6.41639 17.6496 5.66853 17.0513 5.07024C16.453 4.47195 15.7052 4.1728 14.8077 4.1728C14.1048 4.1728 13.4541 4.37099 12.8558 4.76735C12.2575 5.16372 11.8462 5.66853 11.6218 6.28178H9.91672C9.69236 5.66853 9.28103 5.16372 8.68274 4.76735C8.08445 4.37099 7.43381 4.1728 6.73082 4.1728C5.83338 4.1728 5.08552 4.47195 4.48723 5.07024C3.88894 5.66853 3.58979 6.41639 3.58979 7.31383C3.58979 7.83733 3.69449 8.36458 3.9039 8.89556C4.1133 9.42654 4.48723 10.0323 5.02569 10.7129C5.56415 11.3934 6.29706 12.1936 7.22441 13.1135C8.15176 14.0334 9.33338 15.1365 10.7693 16.4228Z" fill="white"/>
<path d="M10.7693 16.4228C12.2052 15.1365 13.3868 14.0334 14.3142 13.1135C15.2415 12.1936 15.9744 11.3934 16.5129 10.7129C17.0513 10.0323 17.4253 9.42654 17.6347 8.89556C17.8441 8.36458 17.9488 7.83733 17.9488 7.31383C17.9488 6.41639 17.6496 5.66853 17.0513 5.07024C16.453 4.47195 15.7052 4.1728 14.8077 4.1728C14.1048 4.1728 13.4541 4.37099 12.8558 4.76735C12.2575 5.16372 11.8462 5.66853 11.6218 6.28178H9.91672C9.69236 5.66853 9.28103 5.16372 8.68274 4.76735C8.08445 4.37099 7.43381 4.1728 6.73082 4.1728C5.83338 4.1728 5.08552 4.47195 4.48723 5.07024C3.88894 5.66853 3.58979 6.41639 3.58979 7.31383C3.58979 7.83733 3.69449 8.36458 3.9039 8.89556C4.1133 9.42654 4.48723 10.0323 5.02569 10.7129C5.56415 11.3934 6.29706 12.1936 7.22441 13.1135C8.15176 14.0334 9.33338 15.1365 10.7693 16.4228Z" fill="white"/>
</g>
</svg>
