<svg width="22" height="22" viewBox="0 0 22 22" fill="none" xmlns="http://www.w3.org/2000/svg">
<mask id="mask0_174_68" style="mask-type:alpha" maskUnits="userSpaceOnUse" x="0" y="0" width="22" height="22">
<rect width="21.5385" height="21.5385" fill="#D9D9D9"/>
</mask>
<g mask="url(#mask0_174_68)">
<path d="M3.58984 18.8462V17.0514H17.9488V18.8462H3.58984ZM7.17959 15.2565C6.19241 15.2565 5.34732 14.905 4.64433 14.202C3.94134 13.499 3.58984 12.6539 3.58984 11.6667V2.69238H17.9488C18.4424 2.69238 18.865 2.86813 19.2164 3.21963C19.5679 3.57112 19.7437 3.99366 19.7437 4.48725V7.17956C19.7437 7.67315 19.5679 8.09569 19.2164 8.44719C18.865 8.79869 18.4424 8.97443 17.9488 8.97443H16.1539V11.6667C16.1539 12.6539 15.8025 13.499 15.0995 14.202C14.3965 14.905 13.5514 15.2565 12.5642 15.2565H7.17959ZM7.17959 13.4616H12.5642C13.0578 13.4616 13.4803 13.2859 13.8318 12.9344C14.1833 12.5829 14.3591 12.1603 14.3591 11.6667V4.48725H5.38472V11.6667C5.38472 12.1603 5.56046 12.5829 5.91196 12.9344C6.26345 13.2859 6.686 13.4616 7.17959 13.4616ZM16.1539 7.17956H17.9488V4.48725H16.1539V7.17956ZM7.17959 13.4616H5.38472H14.3591H7.17959Z" fill="white"/>
</g>
</svg>
