<svg width="22" height="22" viewBox="0 0 22 22" fill="none" xmlns="http://www.w3.org/2000/svg">
<mask id="mask0_254_45" style="mask-type:alpha" maskUnits="userSpaceOnUse" x="0" y="0" width="22" height="22">
<rect width="22" height="22" fill="#D9D9D9"/>
</mask>
<g mask="url(#mask0_254_45)">
<path d="M10.0835 6.18734V3.89567C10.0835 3.254 10.305 2.71164 10.7481 2.26859C11.1911 1.82553 11.7335 1.604 12.3752 1.604H14.6668V3.89567C14.6668 4.53734 14.4453 5.0797 14.0022 5.52275C13.5592 5.96581 13.0168 6.18734 12.3752 6.18734H10.0835ZM5.04183 11.6873C4.15572 11.6873 3.39947 11.3741 2.77308 10.7478C2.14669 10.1214 1.8335 9.36512 1.8335 8.479V5.27067H5.04183C5.92794 5.27067 6.68419 5.58387 7.31058 6.21025C7.93697 6.83664 8.25016 7.59289 8.25016 8.479V11.6873H5.04183ZM14.6668 19.9373C14.071 19.9373 13.5019 19.8457 12.9595 19.6623C12.4172 19.479 11.9245 19.2269 11.4814 18.9061L10.7252 19.6623C10.5571 19.8304 10.3432 19.9144 10.0835 19.9144C9.82377 19.9144 9.60988 19.8304 9.44183 19.6623C9.27377 19.4943 9.18975 19.2804 9.18975 19.0207C9.18975 18.7609 9.27377 18.5471 9.44183 18.379L10.1981 17.6228C9.87725 17.1797 9.62516 16.687 9.44183 16.1446C9.2585 15.6023 9.16683 15.0332 9.16683 14.4373C9.16683 12.9096 9.70155 11.6071 10.771 10.53C11.8404 9.45296 13.1391 8.91442 14.6668 8.91442H20.1897V14.4373C20.1897 15.9651 19.6512 17.2637 18.5741 18.3332C17.497 19.4026 16.1946 19.9373 14.6668 19.9373ZM14.6668 18.104C15.6904 18.104 16.5536 17.745 17.2564 17.0269C17.9592 16.3089 18.3106 15.4457 18.3106 14.4373V10.7707H14.6668C13.6585 10.7707 12.7953 11.1259 12.0772 11.8363C11.3592 12.5467 11.0002 13.4137 11.0002 14.4373C11.0002 14.7887 11.0422 15.121 11.1262 15.4342C11.2102 15.7474 11.3363 16.0415 11.5043 16.3165L14.0252 13.7957C14.1932 13.6276 14.4071 13.5436 14.6668 13.5436C14.9266 13.5436 15.1404 13.6276 15.3085 13.7957C15.4766 13.9637 15.5606 14.1776 15.5606 14.4373C15.5606 14.6971 15.4766 14.9109 15.3085 15.079L12.7877 17.5998C13.0627 17.7679 13.3568 17.8939 13.67 17.978C13.9831 18.062 14.3154 18.104 14.6668 18.104Z" fill="white"/>
</g>
</svg>
