<svg width="24" height="24" viewBox="0 0 24 24" fill="none" xmlns="http://www.w3.org/2000/svg">
<mask id="mask0_417_139" style="mask-type:alpha" maskUnits="userSpaceOnUse" x="0" y="0" width="24" height="24">
<rect width="24" height="24" fill="#D9D9D9"/>
</mask>
<g mask="url(#mask0_417_139)">
<path d="M21.75 6.74998H15.1V4.09998H21.75V6.74998ZM4.25 21.95V4.74998C4.25 4.01664 4.50833 3.39164 5.025 2.87498C5.54167 2.35831 6.16667 2.09998 6.9 2.09998H14.25C13.8833 2.58331 13.6 3.10831 13.4 3.67498C13.2 4.24164 13.1 4.82498 13.1 5.42498C13.1 6.67498 13.4792 7.77498 14.2375 8.72498C14.9958 9.67498 15.95 10.3 17.1 10.6C17.6167 10.7 18.0583 10.75 18.425 10.75C18.7917 10.75 19.2333 10.7 19.75 10.6V21.95L12 18.65L4.25 21.95Z" fill="black"/>
</g>
</svg>
