<svg width="25" height="25" viewBox="0 0 25 25" fill="none" xmlns="http://www.w3.org/2000/svg">
<mask id="mask0_187_7463" style="mask-type:alpha" maskUnits="userSpaceOnUse" x="0" y="0" width="25" height="25">
<rect width="25" height="25" fill="#D9D9D9"/>
</mask>
<g mask="url(#mask0_187_7463)">
<path d="M11.4583 21.875V13.5677C10.3472 13.5677 9.27951 13.355 8.25521 12.9297C7.2309 12.5043 6.32812 11.901 5.54687 11.1198C4.76562 10.3385 4.16667 9.43576 3.75 8.41146C3.33333 7.38715 3.125 6.31944 3.125 5.20833V3.125H5.20833C6.30208 3.125 7.36111 3.33767 8.38542 3.76302C9.40972 4.18837 10.3125 4.79167 11.0937 5.57292C11.6319 6.11111 12.079 6.70139 12.4349 7.34375C12.7908 7.98611 13.0642 8.67187 13.2552 9.40104C13.342 9.27951 13.4375 9.16233 13.5417 9.04948C13.6458 8.93663 13.7587 8.81944 13.8802 8.69792C14.6615 7.91667 15.5642 7.31337 16.5885 6.88802C17.6128 6.46267 18.6806 6.25 19.7917 6.25H21.875V8.33333C21.875 9.44444 21.6623 10.5122 21.237 11.5365C20.8116 12.5608 20.2083 13.4635 19.4271 14.2448C18.6458 15.026 17.7474 15.625 16.7318 16.0417C15.7161 16.4583 14.6528 16.6667 13.5417 16.6667V21.875H11.4583ZM11.4583 11.4583C11.4583 10.625 11.2977 9.83073 10.9766 9.07552C10.6554 8.32031 10.1997 7.64757 9.60937 7.05729C9.0191 6.46701 8.34635 6.01128 7.59115 5.6901C6.83594 5.36892 6.04167 5.20833 5.20833 5.20833C5.20833 6.04167 5.36458 6.84028 5.67708 7.60417C5.98958 8.36806 6.44097 9.04514 7.03125 9.63542C7.62153 10.2257 8.29861 10.6771 9.0625 10.9896C9.82639 11.3021 10.625 11.4583 11.4583 11.4583ZM13.5417 14.5833C14.375 14.5833 15.1693 14.4271 15.9245 14.1146C16.6797 13.8021 17.3524 13.3507 17.9427 12.7604C18.533 12.1701 18.9887 11.4931 19.3099 10.7292C19.6311 9.96528 19.7917 9.16667 19.7917 8.33333C18.9583 8.33333 18.1597 8.49392 17.3958 8.8151C16.6319 9.13628 15.9549 9.59201 15.3646 10.1823C14.7743 10.7726 14.3229 11.4453 14.0104 12.2005C13.6979 12.9557 13.5417 13.75 13.5417 14.5833Z" fill="white"/>
</g>
</svg>
