<svg width="24" height="24" viewBox="0 0 24 24" fill="none" xmlns="http://www.w3.org/2000/svg">
<mask id="mask0_174_71" style="mask-type:alpha" maskUnits="userSpaceOnUse" x="0" y="0" width="24" height="24">
<rect width="24" height="24" fill="#D9D9D9"/>
</mask>
<g mask="url(#mask0_174_71)">
<path d="M12 21.5C9.78333 21.5 7.89583 20.7333 6.3375 19.2C4.77917 17.6667 4 15.8 4 13.6C4 12.55 4.20417 11.5458 4.6125 10.5875C5.02083 9.62917 5.6 8.78333 6.35 8.05L12 2.5L17.65 8.05C18.4 8.78333 18.9792 9.62917 19.3875 10.5875C19.7958 11.5458 20 12.55 20 13.6C20 15.8 19.2208 17.6667 17.6625 19.2C16.1042 20.7333 14.2167 21.5 12 21.5Z" fill="white"/>
</g>
</svg>
